<svg width="48" height="49" viewBox="0 0 48 49" fill="none" xmlns="http://www.w3.org/2000/svg">
<g clip-path="url(#clip0_8360_22282)">
<path d="M40.9688 7.31128C39.8438 6.18628 38.625 5.18628 37.3125 4.31128C36 3.43628 34.625 2.7019 33.1875 2.10815C31.75 1.5144 30.2656 1.06128 28.7344 0.748779C27.1719 0.436279 25.5938 0.280029 24 0.280029C22.4062 0.280029 20.8281 0.436279 19.2656 0.748779C17.7344 1.06128 16.25 1.5144 14.8125 2.10815C13.375 2.7019 12 3.43628 10.6875 4.31128C9.375 5.18628 8.15625 6.18628 7.03125 7.31128C5.90625 8.43628 4.90625 9.65503 4.03125 10.9675C3.15625 12.28 2.42188 13.655 1.82812 15.0925C1.23438 16.53 0.78125 18.0144 0.46875 19.5457C0.15625 21.1082 0 22.6863 0 24.28C0 25.8738 0.15625 27.4519 0.46875 29.0144C0.78125 30.5457 1.23438 32.03 1.82812 33.4675C2.42188 34.905 3.15625 36.28 4.03125 37.5925C4.90625 38.905 5.90625 40.1238 7.03125 41.2488C8.15625 42.3738 9.375 43.3738 10.6875 44.2488C12 45.1238 13.375 45.8582 14.8125 46.4519C16.25 47.0457 17.7344 47.4988 19.2656 47.8113C20.8281 48.1238 22.4062 48.28 24 48.28C25.5938 48.28 27.1719 48.1238 28.7344 47.8113C30.2656 47.4988 31.75 47.0457 33.1875 46.4519C34.625 45.8582 36 45.1238 37.3125 44.2488C38.625 43.3738 39.8438 42.3738 40.9688 41.2488C42.0938 40.1238 43.0938 38.905 43.9688 37.5925C44.8438 36.28 45.5781 34.905 46.1719 33.4675C46.7656 32.03 47.2188 30.5457 47.5312 29.0144C47.8438 27.4519 48 25.8738 48 24.28C48 22.6863 47.8438 21.1082 47.5312 19.5457C47.2188 18.0144 46.7656 16.53 46.1719 15.0925C45.5781 13.655 44.8438 12.28 43.9688 10.9675C43.0938 9.65503 42.0938 8.43628 40.9688 7.31128ZM24 45.4675C23.2188 45.4675 22.4141 44.9597 21.5859 43.9441C20.7578 42.9285 20.0156 41.53 19.3594 39.7488C19.1094 39.0925 18.875 38.405 18.6562 37.6863C18.4375 36.9675 18.25 36.2019 18.0938 35.3894C18.7812 35.0769 19.375 34.6316 19.875 34.0535C20.375 33.4753 20.7344 32.8113 20.9531 32.0613H30.5156C30.3281 33.4988 30.0781 34.866 29.7656 36.1628C29.4531 37.4597 29.0781 38.655 28.6406 39.7488C27.9844 41.53 27.2422 42.9285 26.4141 43.9441C25.5859 44.9597 24.7812 45.4675 24 45.4675ZM10.875 29.2488H3.42188C3.20312 28.4363 3.04688 27.616 2.95312 26.7878C2.85938 25.9597 2.8125 25.1238 2.8125 24.28C2.8125 23.155 2.89844 22.0535 3.07031 20.9753C3.24219 19.8972 3.5 18.8425 3.84375 17.8113H14.4844C14.3906 18.8425 14.3125 19.8972 14.25 20.9753C14.1875 22.0535 14.1562 23.155 14.1562 24.28C14.1562 24.53 14.1562 24.7722 14.1562 25.0066C14.1562 25.241 14.1562 25.4832 14.1562 25.7332C13.375 26.0144 12.6875 26.4675 12.0938 27.0925C11.5 27.7175 11.0938 28.4363 10.875 29.2488ZM15.8906 28.2175C16.5469 28.2175 17.1172 28.4597 17.6016 28.9441C18.0859 29.4285 18.3281 29.9988 18.3281 30.655C18.3281 31.3113 18.0859 31.8816 17.6016 32.366C17.1172 32.8503 16.5469 33.0925 15.8906 33.0925C15.2344 33.0925 14.6641 32.8503 14.1797 32.366C13.6953 31.8816 13.4531 31.3113 13.4531 30.655C13.4531 29.9988 13.6953 29.4285 14.1797 28.9441C14.6641 28.4597 15.2344 28.2175 15.8906 28.2175ZM20.9531 29.2488C20.6719 28.3113 20.1797 27.5066 19.4766 26.8347C18.7734 26.1628 17.9375 25.7332 16.9688 25.5457C16.9688 25.3269 16.9688 25.116 16.9688 24.9128C16.9688 24.7097 16.9688 24.4988 16.9688 24.28C16.9688 23.155 17 22.0535 17.0625 20.9753C17.125 19.8972 17.2031 18.8425 17.2969 17.8113H26.8594C27.1094 18.78 27.6094 19.6003 28.3594 20.2722C29.1094 20.9441 29.9844 21.3738 30.9844 21.5613C30.9844 21.9988 30.9922 22.4441 31.0078 22.8972C31.0234 23.3503 31.0312 23.8113 31.0312 24.28C31.0312 25.1238 31.0156 25.9597 30.9844 26.7878C30.9531 27.616 30.9062 28.4363 30.8438 29.2488H20.9531ZM24 3.09253C24.7812 3.09253 25.5859 3.60034 26.4141 4.61597C27.2422 5.63159 27.9844 7.03003 28.6406 8.81128C28.8281 9.24878 28.9922 9.70972 29.1328 10.1941C29.2734 10.6785 29.4219 11.1863 29.5781 11.7175C28.9219 12.03 28.3516 12.4753 27.8672 13.0535C27.3828 13.6316 27.0469 14.28 26.8594 14.9988H17.7188C17.9062 13.8425 18.1406 12.7488 18.4219 11.7175C18.7031 10.6863 19.0156 9.71753 19.3594 8.81128C20.0156 7.03003 20.7578 5.63159 21.5859 4.61597C22.4141 3.60034 23.2188 3.09253 24 3.09253ZM31.875 18.8425C31.2188 18.8425 30.6562 18.6003 30.1875 18.116C29.7188 17.6316 29.4844 17.0613 29.4844 16.405C29.4844 15.7175 29.7188 15.1394 30.1875 14.6707C30.6562 14.2019 31.2188 13.9675 31.875 13.9675C32.5625 13.9675 33.1406 14.2019 33.6094 14.6707C34.0781 15.1394 34.3125 15.7175 34.3125 16.405C34.3125 17.0613 34.0781 17.6316 33.6094 18.116C33.1406 18.6003 32.5625 18.8425 31.875 18.8425ZM33.7969 21.28C34.5469 20.9988 35.2031 20.5457 35.7656 19.9207C36.3281 19.2957 36.7188 18.5925 36.9375 17.8113H44.1562C44.5 18.8425 44.7578 19.8972 44.9297 20.9753C45.1016 22.0535 45.1875 23.155 45.1875 24.28C45.1875 25.1238 45.1406 25.9597 45.0469 26.7878C44.9531 27.616 44.7969 28.4363 44.5781 29.2488H33.6562C33.7188 28.4363 33.7656 27.616 33.7969 26.7878C33.8281 25.9597 33.8438 25.1238 33.8438 24.28C33.8438 23.78 33.8359 23.28 33.8203 22.78C33.8047 22.28 33.7969 21.78 33.7969 21.28ZM43.0312 14.9988H36.9375C36.6562 13.9675 36.0938 13.1003 35.25 12.3972C34.4062 11.6941 33.4375 11.2957 32.3438 11.2019C32.1875 10.5769 32.0234 9.98315 31.8516 9.42065C31.6797 8.85815 31.4844 8.3269 31.2656 7.8269C30.9844 7.0144 30.6719 6.27222 30.3281 5.60034C29.9844 4.92847 29.625 4.31128 29.25 3.74878C31.0938 4.21753 32.8359 4.92065 34.4766 5.85815C36.1172 6.79565 37.625 7.93628 39 9.28003C39.8125 10.1238 40.5625 11.03 41.25 11.9988C41.9375 12.9675 42.5312 13.9675 43.0312 14.9988ZM9 9.28003C10.375 7.93628 11.8828 6.79565 13.5234 5.85815C15.1641 4.92065 16.9062 4.21753 18.75 3.74878C18.375 4.31128 18.0156 4.92847 17.6719 5.60034C17.3281 6.27222 17.0156 7.0144 16.7344 7.8269C16.3281 8.85815 15.9688 9.98315 15.6562 11.2019C15.3438 12.4207 15.0781 13.6863 14.8594 14.9988H4.96875C5.46875 13.9675 6.0625 12.9675 6.75 11.9988C7.4375 11.03 8.1875 10.1238 9 9.28003ZM4.26562 32.0613H10.875C11.1562 33.0613 11.6953 33.9128 12.4922 34.616C13.2891 35.3191 14.2344 35.7332 15.3281 35.8582C15.5156 36.7332 15.7266 37.5847 15.9609 38.4128C16.1953 39.241 16.4531 40.0144 16.7344 40.7332C17.0156 41.5457 17.3281 42.2878 17.6719 42.9597C18.0156 43.6316 18.375 44.2488 18.75 44.8113C16.9062 44.3425 15.1641 43.6394 13.5234 42.7019C11.8828 41.7644 10.375 40.6238 9 39.28C7.96875 38.2175 7.05469 37.0847 6.25781 35.8816C5.46094 34.6785 4.79688 33.405 4.26562 32.0613ZM39 39.28C37.625 40.6238 36.1172 41.7644 34.4766 42.7019C32.8359 43.6394 31.0938 44.3425 29.25 44.8113C29.625 44.2488 29.9844 43.6316 30.3281 42.9597C30.6719 42.2878 30.9844 41.5457 31.2656 40.7332C31.7344 39.4832 32.1484 38.1316 32.5078 36.6785C32.8672 35.2253 33.1406 33.6863 33.3281 32.0613H43.7344C43.2031 33.405 42.5391 34.6785 41.7422 35.8816C40.9453 37.0847 40.0312 38.2175 39 39.28Z" fill="#2EBB77"/>
</g>
<defs>
<clipPath id="clip0_8360_22282">
<rect width="48" height="48" fill="white" transform="matrix(1 0 0 -1 0 48.28)"/>
</clipPath>
</defs>
</svg>
